<?xml version="1.0" standalone="no"?>
<!DOCTYPE svg PUBLIC "-//W3C//DTD SVG 20010904//EN"
 "http://www.w3.org/TR/2001/REC-SVG-20010904/DTD/svg10.dtd">
<svg version="1.0" xmlns="http://www.w3.org/2000/svg"
 width="442.000000pt" height="431.000000pt" viewBox="0 0 442.000000 431.000000"
 preserveAspectRatio="xMidYMid meet">

<g transform="translate(0.000000,431.000000) scale(0.100000,-0.100000)"
fill="#000000" stroke="none">
<path d="M2030 4124 c-14 -2 -59 -9 -100 -15 -325 -46 -672 -200 -940 -416
-96 -78 -260 -247 -331 -343 -475 -636 -524 -1496 -124 -2175 168 -286 414
-532 700 -700 503 -296 1129 -352 1675 -148 332 124 630 339 850 614 71 89
162 226 204 308 l18 34 -488 488 -489 489 -575 -575 -575 -575 -470 0 -470 0
1045 1039 1045 1039 593 -591 592 -592 0 160 c-1 536 -199 1016 -574 1391
-311 311 -697 501 -1134 559 -101 13 -383 19 -452 9z"/>
</g>
</svg>
